<svg width="33" height="35" viewBox="0 0 33 35" fill="none" xmlns="http://www.w3.org/2000/svg">
<g clip-path="url(#clip0_803_342)">
<path d="M9.54218 3.16591C9.50479 3.09377 9.48198 3.01496 9.47505 2.934C9.46813 2.85304 9.47722 2.7715 9.50181 2.69406C9.5264 2.61661 9.56602 2.54477 9.61838 2.48263C9.67075 2.4205 9.73484 2.36929 9.807 2.33193C12.0213 1.20594 14.4809 0.648712 16.9643 0.710468C19.4476 0.772225 21.8765 1.45103 24.0321 2.68569C24.1028 2.72635 24.1647 2.7806 24.2143 2.84533C24.264 2.91005 24.3003 2.98396 24.3212 3.06279C24.3422 3.14163 24.3473 3.22382 24.3363 3.30464C24.3253 3.38545 24.2984 3.46329 24.2571 3.53366L17.136 15.755C17.0817 15.8485 17.0037 15.9262 16.9099 15.9801C16.816 16.034 16.7097 16.0623 16.6014 16.0621H16.5857C16.4749 16.0592 16.3668 16.0266 16.2728 15.9678C16.1788 15.909 16.1023 15.8261 16.0511 15.7277L9.54218 3.16591ZM16.2194 19.3215V19.3203L9.71027 6.75846C9.63467 6.61303 9.50461 6.50342 9.34847 6.45355C9.19234 6.40367 9.02281 6.4176 8.87691 6.49228C7.14214 7.38178 5.60011 8.60513 4.33934 10.0921C3.07856 11.5791 2.12386 13.3004 1.53002 15.1573C0.936183 17.0142 0.714905 18.97 0.878887 20.9127C1.04287 22.8553 1.58888 24.7464 2.48559 26.4774C3.38229 28.2085 4.61204 29.7454 6.10423 31C7.59643 32.2546 9.32171 33.2021 11.181 33.7883C13.0404 34.3744 14.9972 34.5875 16.9391 34.4155C18.881 34.2434 20.7698 33.6895 22.4971 32.7857C22.6422 32.7097 22.7514 32.5794 22.8008 32.4233C22.8502 32.2671 22.8358 32.0978 22.7608 31.9522L16.2194 19.3215ZM23.8495 31.195L23.899 31.2941C23.9738 31.4402 24.1027 31.5513 24.2582 31.6037C24.322 31.6249 24.3894 31.6333 24.4564 31.6285C24.5544 31.6258 24.651 31.6048 24.7413 31.5666C24.9668 31.4549 25.1859 31.3308 25.3978 31.195C26.0278 30.8295 26.6283 30.4153 27.1938 29.9564H23.2054L23.8495 31.195ZM22.5613 28.7177H28.5439C28.9286 28.3312 29.2846 27.9172 29.6092 27.4791H21.9172L22.5613 28.7177ZM21.2855 26.2404H30.4886C30.7423 25.8428 30.9699 25.429 31.1698 25.0018H20.6414L21.2855 26.2404ZM19.9973 23.7631H31.7148C31.8792 23.3588 32.0198 22.9452 32.136 22.5245H19.3532L19.9973 23.7631ZM18.7091 21.2859H32.4456C32.52 20.8771 32.5819 20.4684 32.6191 20.0472H18.0774L18.7091 21.2859ZM25.3482 5.62944C25.2787 5.58621 25.2008 5.55832 25.1196 5.54764C25.0384 5.53696 24.9559 5.54374 24.8775 5.56751C24.7973 5.58583 24.7218 5.62062 24.6557 5.66965C24.5896 5.71869 24.5344 5.78092 24.4936 5.8524L24.1591 6.42217H26.5497C26.1637 6.13663 25.7626 5.87201 25.3482 5.62944ZM28.0485 7.66081H23.4407L22.7223 8.89945H29.2252C28.8587 8.46284 28.4657 8.04918 28.0485 7.66081ZM30.1542 10.1381H21.9915L21.2731 11.3767H30.9097C30.6862 10.9472 30.4338 10.5334 30.1542 10.1381ZM31.5043 12.6154H20.5547L19.8363 13.854H31.9874C31.8501 13.4323 31.6888 13.0187 31.5043 12.6154ZM32.3342 15.0927H19.1055L18.3871 16.3313H32.5571C32.5079 15.9143 32.4335 15.5006 32.3342 15.0927ZM32.681 17.5699H17.6687L17.3714 18.0778C17.3177 18.1672 17.2883 18.2691 17.2862 18.3734C17.284 18.4777 17.3091 18.5807 17.359 18.6723L17.4333 18.8086H32.7058C32.7181 18.6847 32.7181 18.5485 32.7181 18.4246C32.7181 18.1397 32.7058 17.8548 32.681 17.5699Z" fill="#0A2640"/>
<path d="M9.25769 5.88007C9.03065 5.44985 8.49627 5.28305 8.07944 5.53383C4.77956 7.51919 2.31417 10.6551 1.17076 14.354C-0.0596076 18.3341 0.341519 22.64 2.2859 26.3244C4.23028 30.0087 7.55863 32.7698 11.5388 34.0002C15.2376 35.1436 19.2178 34.878 22.719 33.2742C23.1612 33.0716 23.3251 32.5363 23.0981 32.1061L16.1779 18.9931L9.25769 5.88007Z" fill="#0A2640"/>
</g>
<defs>
<clipPath id="clip0_803_342">
<rect width="32.745" height="34.8351" fill="white" transform="translate(0.191162 0.153778)"/>
</clipPath>
</defs>
</svg>
