<svg width="100" height="23" viewBox="0 0 100 23" fill="none" xmlns="http://www.w3.org/2000/svg">
<path d="M9.81845 0.960008C11.5399 0.960008 13.0063 1.23629 14.2177 1.78886C15.4291 2.34142 16.3536 3.13839 16.9912 4.17976C17.6288 5.22114 17.9475 6.48566 17.9475 7.97334C17.9475 9.46101 17.6288 10.7255 16.9912 11.7669C16.3536 12.8083 15.4291 13.6053 14.2177 14.1578C13.0063 14.7104 11.5399 14.9867 9.81845 14.9867H5.64233V22H0.159182V0.960008H9.81845ZM8.95772 10.8743C10.1054 10.8743 10.9661 10.6405 11.5399 10.173C12.135 9.68417 12.4325 8.95095 12.4325 7.97334C12.4325 6.99572 12.135 6.27314 11.5399 5.80558C10.9661 5.31677 10.1054 5.07237 8.95772 5.07237H5.64233V10.8743H8.95772ZM21.0707 22V6.06061H25.8525L26.0756 9.50352C26.4794 8.31338 27.0745 7.38889 27.8608 6.73007C28.6684 6.07124 29.6886 5.74182 30.9212 5.74182C31.325 5.74182 31.665 5.7737 31.9413 5.83746C32.2389 5.90122 32.4726 5.98623 32.6427 6.09249L32.1007 10.5555C31.8882 10.4705 31.6119 10.4068 31.2719 10.3642C30.9531 10.3005 30.5599 10.2686 30.0924 10.2686C29.4548 10.2686 28.8597 10.4068 28.3071 10.683C27.7546 10.9593 27.3083 11.3737 26.9682 11.9263C26.6494 12.4576 26.4901 13.1377 26.4901 13.9665V22H21.0707ZM42.3602 22.3188C40.5962 22.3188 39.0661 21.9894 37.7697 21.3305C36.4945 20.6717 35.5063 19.726 34.8049 18.4933C34.1036 17.2607 33.7529 15.773 33.7529 14.0303C33.7529 12.2876 34.1036 10.7999 34.8049 9.56728C35.5063 8.33463 36.4839 7.38889 37.7378 6.73007C39.0129 6.07124 40.4687 5.74182 42.1052 5.74182C43.7841 5.74182 45.208 6.07124 46.3769 6.73007C47.5671 7.36764 48.4703 8.26025 49.0866 9.40788C49.7029 10.5343 50.0111 11.8307 50.0111 13.2971C50.0111 13.6796 50.0005 14.0622 49.9792 14.4447C49.958 14.8273 49.9261 15.1461 49.8836 15.4011H37.2596V12.5001H47.4927L44.9105 13.4884C44.9105 12.2132 44.6767 11.2356 44.2092 10.5555C43.7629 9.87544 43.0615 9.5354 42.1052 9.5354C41.4251 9.5354 40.8406 9.69479 40.3518 10.0136C39.8843 10.3324 39.523 10.8318 39.268 11.5119C39.0342 12.192 38.9173 13.0633 38.9173 14.1259C38.9173 15.1673 39.0554 16.0174 39.3317 16.6762C39.608 17.3138 40.0012 17.7814 40.5112 18.0789C41.0213 18.3552 41.6376 18.4933 42.3602 18.4933C43.1678 18.4933 43.8054 18.3339 44.2729 18.0152C44.7617 17.6964 45.123 17.2501 45.3568 16.6762L49.6923 18.1108C49.3948 19.0246 48.8741 19.8004 48.1303 20.4379C47.4077 21.0543 46.5363 21.5218 45.5162 21.8406C44.5173 22.1594 43.4653 22.3188 42.3602 22.3188ZM59.7374 22.3188C58.1434 22.3188 56.6558 22.0638 55.2743 21.5537C53.9142 21.0224 52.7878 20.2679 51.8952 19.2903L54.4455 16.2937C54.9768 16.9738 55.6781 17.5476 56.5495 18.0152C57.4421 18.4615 58.4303 18.6846 59.5142 18.6846C60.1731 18.6846 60.715 18.589 61.14 18.3977C61.5651 18.2064 61.7776 17.9089 61.7776 17.5051C61.7776 17.2076 61.6714 16.9738 61.4588 16.8038C61.2463 16.6125 60.8213 16.4531 60.1837 16.3256L57.9522 15.8793C55.9544 15.4755 54.5305 14.8804 53.6804 14.0941C52.8516 13.2865 52.4371 12.2345 52.4371 10.9381C52.4371 10.0667 52.7028 9.23786 53.2341 8.45152C53.7654 7.64392 54.5836 6.99572 55.6888 6.50691C56.7939 5.99685 58.2072 5.74182 59.9286 5.74182C61.5438 5.74182 62.9678 5.9756 64.2004 6.44316C65.4331 6.91071 66.4107 7.59079 67.1333 8.4834L64.5511 11.4162C64.041 10.7787 63.3822 10.2792 62.5746 9.91794C61.767 9.55665 60.9594 9.376 60.1518 9.376C59.6417 9.376 59.2061 9.42914 58.8448 9.5354C58.5047 9.62041 58.2497 9.74792 58.0797 9.91794C57.9097 10.088 57.8247 10.3005 57.8247 10.5555C57.8247 10.8318 57.9522 11.0762 58.2072 11.2887C58.4835 11.48 58.9829 11.65 59.7055 11.7988L62.6065 12.3726C64.2429 12.6701 65.4224 13.2121 66.145 13.9984C66.8676 14.7848 67.2289 15.7305 67.2289 16.8356C67.2289 17.877 66.9526 18.8121 66.4 19.641C65.8475 20.4698 65.0186 21.1286 63.9135 21.6175C62.8084 22.085 61.4163 22.3188 59.7374 22.3188ZM76.7034 0.991886V16.3256C76.7034 17.0907 76.884 17.6432 77.2453 17.9833C77.6278 18.3021 78.1485 18.4615 78.8074 18.4615C79.3174 18.4615 79.7531 18.4083 80.1144 18.3021C80.4969 18.1745 80.837 17.9939 81.1345 17.7601L81.7083 21.1074C81.177 21.4899 80.5076 21.7875 79.7 22C78.8924 22.2125 78.0635 22.3188 77.2134 22.3188C76.002 22.3188 74.95 22.1488 74.0574 21.8087C73.1861 21.4687 72.506 20.9267 72.0172 20.1829C71.5496 19.4391 71.3052 18.4508 71.284 17.2182V2.49019L76.7034 0.991886ZM81.4533 6.06061V9.91794H68.5424V6.06061H81.4533ZM91.5437 5.74182C93.2226 5.74182 94.689 6.07124 95.9429 6.73007C97.2181 7.36764 98.2063 8.31338 98.9077 9.56728C99.6303 10.7999 99.9915 12.2876 99.9915 14.0303C99.9915 15.773 99.6303 17.2713 98.9077 18.5252C98.2063 19.7579 97.2181 20.7036 95.9429 21.3624C94.689 22 93.2226 22.3188 91.5437 22.3188C89.9072 22.3188 88.4514 22 87.1763 21.3624C85.9011 20.7036 84.9023 19.7579 84.1797 18.5252C83.4783 17.2713 83.1277 15.773 83.1277 14.0303C83.1277 12.2876 83.4783 10.7999 84.1797 9.56728C84.9023 8.31338 85.9011 7.36764 87.1763 6.73007C88.4514 6.07124 89.9072 5.74182 91.5437 5.74182ZM91.5437 9.59916C90.9273 9.59916 90.396 9.74792 89.9497 10.0455C89.5034 10.343 89.1634 10.8212 88.9296 11.48C88.6958 12.1388 88.5789 12.9889 88.5789 14.0303C88.5789 15.0717 88.6958 15.9218 88.9296 16.5806C89.1634 17.2182 89.5034 17.6964 89.9497 18.0152C90.396 18.3127 90.9273 18.4615 91.5437 18.4615C92.1812 18.4615 92.7232 18.3127 93.1695 18.0152C93.6158 17.6964 93.9558 17.2182 94.1896 16.5806C94.4234 15.9218 94.5403 15.0717 94.5403 14.0303C94.5403 12.9889 94.4234 12.1388 94.1896 11.48C93.9558 10.8212 93.6158 10.343 93.1695 10.0455C92.7232 9.74792 92.1812 9.59916 91.5437 9.59916Z" fill="#0A2640"/>
</svg>
